<?xml version="1.0" ?><svg viewBox="0 0 64 64" xmlns="http://www.w3.org/2000/svg"><g id="outline"><path fill="white" d="M40.834,8.315a10,10,0,0,0-17.668,0L3.125,46.1A10,10,0,0,0,11.96,60.79H52.04A10,10,0,0,0,60.875,46.1ZM58.9,54.914A7.936,7.936,0,0,1,52.04,58.79H11.96A8,8,0,0,1,4.892,47.042l20.04-37.79a8,8,0,0,1,14.136,0l20.04,37.79A7.937,7.937,0,0,1,58.9,54.914Z"/><path fill="white" d="M43.382,38.79l1.723,3.447a1,1,0,1,0,1.79-.894l-2-4a1,1,0,0,0-.9-.553H41v-1a3.968,3.968,0,0,0-.237-1.307l2.792-1.861A1,1,0,0,0,44,31.79v-5a1,1,0,1,0-2,0v4.465l-2.347,1.564A3.971,3.971,0,0,0,37,31.79v-3a5,5,0,0,0-10,0v3a3.971,3.971,0,0,0-2.653,1.029L22,31.255V26.79a1,1,0,0,0-2,0v5a1,1,0,0,0,.445.832l2.792,1.861A3.968,3.968,0,0,0,23,35.79v1H20a1,1,0,0,0-.895.553l-2,4a1,1,0,0,0,1.79.894l1.723-3.447H23v5H20a1,1,0,0,0-.895.553l-2,4a1,1,0,0,0,1.79.894l1.723-3.447h2.614a8.991,8.991,0,0,0,17.536,0h2.614l1.723,3.447a1,1,0,0,0,1.79-.894l-2-4a1,1,0,0,0-.9-.553H41v-5ZM29,28.79a3,3,0,0,1,6,0v3H29Zm-4,15v-8a2,2,0,0,1,2-2h4v8.228l-3.951,6.716A6.98,6.98,0,0,1,25,43.79Zm7,7a6.951,6.951,0,0,1-3.34-.85L32,44.262l3.34,5.678A6.951,6.951,0,0,1,32,50.79Zm7-7a6.98,6.98,0,0,1-2.049,4.944L33,42.018V33.79h4a2,2,0,0,1,2,2Z"/></g></svg>