<svg id="SvgjsSvg1017" width="288" height="288" xmlns="http://www.w3.org/2000/svg" version="1.1" xmlns:xlink="http://www.w3.org/1999/xlink" xmlns:svgjs="http://svgjs.com/svgjs"><defs id="SvgjsDefs1018"></defs><g id="SvgjsG1019"><svg xmlns="http://www.w3.org/2000/svg" width="288" height="288" enable-background="new 0 0 48 48" viewBox="0 0 48 48"><path fill="white" d="M24,46C11.869,46,2,36.131,2,24S11.869,2,24,2s22,9.869,22,22S36.131,46,24,46z M24,3    C12.42,3,3,12.42,3,24s9.42,21,21,21s21-9.42,21-21S35.58,3,24,3z" class="color546E7A svgShape" data-darkreader-inline-fill="white" style="--darkreader-inline-fill:white;"></path><path fill="white" d="M24 42c-1.93 0-3.5-1.57-3.5-3.5S22.07 35 24 35s3.5 1.57 3.5 3.5c0 .373-.059.74-.174 1.091-.087.263-.37.406-.631.319-.263-.086-.405-.369-.319-.631.083-.251.124-.513.124-.779 0-1.378-1.122-2.5-2.5-2.5s-2.5 1.122-2.5 2.5S22.622 41 24 41c.396 0 .776-.09 1.128-.269.247-.126.546-.026.672.221.125.246.026.547-.221.672C25.086 41.874 24.555 42 24 42zM24 33c-1.548 0-2.808-1.257-2.808-2.801v-.767c0-2.868.836-4.948 2.631-6.544.607-.541 1.258-1.005 1.832-1.415 1.946-1.395 3.229-2.314 3.229-5.081 0-2.771-1.773-4.209-3.432-4.631-1.985-.503-4.781.192-6.68 3.669-.74 1.355-2.448 1.858-3.807 1.121-.66-.357-1.14-.95-1.352-1.668-.212-.718-.131-1.475.228-2.132 2.831-5.189 7.931-7.711 12.996-6.418 4.583 1.163 7.662 5.205 7.662 10.06 0 5.642-3.219 7.947-5.57 9.631-.514.368-.998.714-1.37 1.045-.318.283-.753.67-.753 2.364v.767C26.808 31.743 25.548 33 24 33zM24.252 10.612c.507 0 .995.064 1.447.18 2.023.514 4.185 2.255 4.185 5.6 0 3.279-1.608 4.432-3.644 5.891-.559.399-1.186.847-1.753 1.352-1.566 1.394-2.296 3.235-2.296 5.797v.767C22.192 31.192 23.003 32 24 32s1.808-.808 1.808-1.801v-.767c0-1.976.562-2.642 1.088-3.111.412-.367.917-.728 1.451-1.11 2.297-1.646 5.154-3.691 5.154-8.819 0-4.389-2.776-8.042-6.909-9.09-4.605-1.174-9.266 1.153-11.871 5.928-.23.422-.283.909-.146 1.37.137.462.445.843.87 1.073.877.475 1.976.151 2.452-.722C19.65 11.739 22.127 10.612 24.252 10.612z" class="color546E7A svgShape" data-darkreader-inline-fill="white" style="--darkreader-inline-fill:white;"></path></svg></g></svg>