<svg id="SvgjsSvg1023" width="288" height="288" xmlns="http://www.w3.org/2000/svg" version="1.1" xmlns:xlink="http://www.w3.org/1999/xlink" xmlns:svgjs="http://svgjs.com/svgjs"><defs id="SvgjsDefs1024"></defs><g id="SvgjsG1025"><svg xmlns="http://www.w3.org/2000/svg" width="288" height="288" enable-background="new 0 0 128 128" viewBox="0 0 128 128"><path d="M64,0C28.656,0,0,28.656,0,64s28.656,64,64,64s64-28.656,64-64S99.344,0,64,0z M64,120C33.125,120,8,94.875,8,64
			S33.125,8,64,8s56,25.125,56,56S94.875,120,64,120z M83.797,41.375L55.516,69.656L44.203,58.344
			c-3.125-3.125-8.195-3.125-11.313,0c-3.125,3.125-3.125,8.195,0,11.313l16.969,16.969c3.117,3.125,8.188,3.125,11.313,0
			l33.938-33.938c3.125-3.125,3.125-8.195,0-11.313C91.992,38.25,86.922,38.25,83.797,41.375z" fill="#ffffff" class="color000 svgShape" data-darkreader-inline-fill="" style="--darkreader-inline-fill:#242729;"></path></svg></g></svg>